<svg id="visual" viewBox="0 0 1920 1080" width="1920" height="1080" xmlns="http://www.w3.org/2000/svg" xmlns:xlink="http://www.w3.org/1999/xlink" version="1.1"><path d="M0 829L29.2 832.2C58.3 835.3 116.7 841.7 174.8 849C233 856.3 291 864.7 349.2 862C407.3 859.3 465.7 845.7 523.8 844C582 842.3 640 852.7 698.2 859.3C756.3 866 814.7 869 872.8 860.2C931 851.3 989 830.7 1047.2 829.7C1105.3 828.7 1163.7 847.3 1221.8 849.5C1280 851.7 1338 837.3 1396.2 835.8C1454.3 834.3 1512.7 845.7 1570.8 853C1629 860.3 1687 863.7 1745.2 866.7C1803.3 869.7 1861.7 872.3 1890.8 873.7L1920 875L1920 1081L1890.8 1081C1861.7 1081 1803.3 1081 1745.2 1081C1687 1081 1629 1081 1570.8 1081C1512.7 1081 1454.3 1081 1396.2 1081C1338 1081 1280 1081 1221.8 1081C1163.7 1081 1105.3 1081 1047.2 1081C989 1081 931 1081 872.8 1081C814.7 1081 756.3 1081 698.2 1081C640 1081 582 1081 523.8 1081C465.7 1081 407.3 1081 349.2 1081C291 1081 233 1081 174.8 1081C116.7 1081 58.3 1081 29.2 1081L0 1081Z" fill="#1b4332"></path><path d="M0 853L29.2 859C58.3 865 116.7 877 174.8 889C233 901 291 913 349.2 914.3C407.3 915.7 465.7 906.3 523.8 894.3C582 882.3 640 867.7 698.2 861.2C756.3 854.7 814.7 856.3 872.8 860.7C931 865 989 872 1047.2 875.5C1105.3 879 1163.7 879 1221.8 884.7C1280 890.3 1338 901.7 1396.2 899.3C1454.3 897 1512.7 881 1570.8 872.3C1629 863.7 1687 862.3 1745.2 860.7C1803.3 859 1861.7 857 1890.8 856L1920 855L1920 1081L1890.8 1081C1861.7 1081 1803.3 1081 1745.2 1081C1687 1081 1629 1081 1570.8 1081C1512.7 1081 1454.3 1081 1396.2 1081C1338 1081 1280 1081 1221.8 1081C1163.7 1081 1105.3 1081 1047.2 1081C989 1081 931 1081 872.8 1081C814.7 1081 756.3 1081 698.2 1081C640 1081 582 1081 523.8 1081C465.7 1081 407.3 1081 349.2 1081C291 1081 233 1081 174.8 1081C116.7 1081 58.3 1081 29.2 1081L0 1081Z" fill="#245640"></path><path d="M0 922L29.2 920.2C58.3 918.3 116.7 914.7 174.8 916.8C233 919 291 927 349.2 926.8C407.3 926.7 465.7 918.3 523.8 923.2C582 928 640 946 698.2 951.7C756.3 957.3 814.7 950.7 872.8 950.2C931 949.7 989 955.3 1047.2 954.7C1105.3 954 1163.7 947 1221.8 943.3C1280 939.7 1338 939.3 1396.2 938.7C1454.3 938 1512.7 937 1570.8 939C1629 941 1687 946 1745.2 944.7C1803.3 943.3 1861.7 935.7 1890.8 931.8L1920 928L1920 1081L1890.8 1081C1861.7 1081 1803.3 1081 1745.2 1081C1687 1081 1629 1081 1570.8 1081C1512.7 1081 1454.3 1081 1396.2 1081C1338 1081 1280 1081 1221.8 1081C1163.7 1081 1105.3 1081 1047.2 1081C989 1081 931 1081 872.8 1081C814.7 1081 756.3 1081 698.2 1081C640 1081 582 1081 523.8 1081C465.7 1081 407.3 1081 349.2 1081C291 1081 233 1081 174.8 1081C116.7 1081 58.3 1081 29.2 1081L0 1081Z" fill="#2d694e"></path><path d="M0 983L29.2 980C58.3 977 116.7 971 174.8 974.7C233 978.3 291 991.7 349.2 998.3C407.3 1005 465.7 1005 523.8 998.5C582 992 640 979 698.2 974.3C756.3 969.7 814.7 973.3 872.8 974.5C931 975.7 989 974.3 1047.2 977.2C1105.3 980 1163.7 987 1221.8 984.8C1280 982.7 1338 971.3 1396.2 964.2C1454.3 957 1512.7 954 1570.8 958.5C1629 963 1687 975 1745.2 984.5C1803.3 994 1861.7 1001 1890.8 1004.5L1920 1008L1920 1081L1890.8 1081C1861.7 1081 1803.3 1081 1745.2 1081C1687 1081 1629 1081 1570.8 1081C1512.7 1081 1454.3 1081 1396.2 1081C1338 1081 1280 1081 1221.8 1081C1163.7 1081 1105.3 1081 1047.2 1081C989 1081 931 1081 872.8 1081C814.7 1081 756.3 1081 698.2 1081C640 1081 582 1081 523.8 1081C465.7 1081 407.3 1081 349.2 1081C291 1081 233 1081 174.8 1081C116.7 1081 58.3 1081 29.2 1081L0 1081Z" fill="#367d5d"></path><path d="M0 1031L29.2 1027.7C58.3 1024.3 116.7 1017.7 174.8 1020.2C233 1022.7 291 1034.3 349.2 1039.2C407.3 1044 465.7 1042 523.8 1034.7C582 1027.3 640 1014.7 698.2 1009C756.3 1003.3 814.7 1004.7 872.8 1011C931 1017.3 989 1028.7 1047.2 1030.5C1105.3 1032.3 1163.7 1024.7 1221.8 1023.5C1280 1022.3 1338 1027.7 1396.2 1025.5C1454.3 1023.3 1512.7 1013.7 1570.8 1012.5C1629 1011.3 1687 1018.7 1745.2 1018.2C1803.3 1017.7 1861.7 1009.3 1890.8 1005.2L1920 1001L1920 1081L1890.8 1081C1861.7 1081 1803.3 1081 1745.2 1081C1687 1081 1629 1081 1570.8 1081C1512.7 1081 1454.3 1081 1396.2 1081C1338 1081 1280 1081 1221.8 1081C1163.7 1081 1105.3 1081 1047.2 1081C989 1081 931 1081 872.8 1081C814.7 1081 756.3 1081 698.2 1081C640 1081 582 1081 523.8 1081C465.7 1081 407.3 1081 349.2 1081C291 1081 233 1081 174.8 1081C116.7 1081 58.3 1081 29.2 1081L0 1081Z" fill="#40916c"></path></svg>